<?xml version="1.0" encoding="UTF-8" standalone="no"?>
<!-- Created with Inkscape (http://www.inkscape.org/) -->

<svg
   xmlns:dc="http://purl.org/dc/elements/1.1/"
   xmlns:cc="http://creativecommons.org/ns#"
   xmlns:rdf="http://www.w3.org/1999/02/22-rdf-syntax-ns#"
   xmlns:svg="http://www.w3.org/2000/svg"
   xmlns="http://www.w3.org/2000/svg"
   xmlns:sodipodi="http://sodipodi.sourceforge.net/DTD/sodipodi-0.dtd"
   xmlns:inkscape="http://www.inkscape.org/namespaces/inkscape"
   width="56.531551mm"
   height="30.928047mm"
   viewBox="0 0 56.531551 30.928047"
   version="1.1"
   id="svg942"
   sodipodi:docname="logo.svg"
   inkscape:version="0.92.5 (2060ec1f9f, 2020-04-08)"
   inkscape:export-filename="C:\Users\akuma\Desktop\Logos\19.png"
   inkscape:export-xdpi="96"
   inkscape:export-ydpi="96">
  <defs
     id="defs936" />
  <sodipodi:namedview
     id="base"
     pagecolor="#ffffff"
     bordercolor="#666666"
     borderopacity="1.0"
     inkscape:pageopacity="0.0"
     inkscape:pageshadow="2"
     inkscape:zoom="7.9195959"
     inkscape:cx="93.315648"
     inkscape:cy="137.15386"
     inkscape:document-units="mm"
     inkscape:current-layer="layer1"
     showgrid="false"
     inkscape:window-width="3840"
     inkscape:window-height="2120"
     inkscape:window-x="3348"
     inkscape:window-y="-12"
     inkscape:window-maximized="1" />
  <metadata
     id="metadata939">
    <rdf:RDF>
      <cc:Work
         rdf:about="">
        <dc:format>image/svg+xml</dc:format>
        <dc:type
           rdf:resource="http://purl.org/dc/dcmitype/StillImage" />
        <dc:title></dc:title>
      </cc:Work>
    </rdf:RDF>
  </metadata>
  <g
     inkscape:label="Layer 1"
     inkscape:groupmode="layer"
     id="layer1"
     transform="translate(-100.98949,-89.139562)">
    <path
       style="font-style:normal;font-weight:bold;font-size:42.33333206px;line-height:1.25;font-family:sans-serif;letter-spacing:0px;word-spacing:0px;display:inline;fill:#000000;fill-opacity:1;stroke:none;stroke-width:0.79198784"
       d="m 45.107422,0.25195312 c -8.992441,0 -15.552796,1.81536728 -19.677734,5.44531248 -4.124939,3.5886955 -6.1875,9.3630864 -6.1875,17.3242184 v 12.685547 c 0,6.187408 -1.112342,10.476662 -3.339844,12.869141 -2.227465,2.392479 -6.2714325,3.58789 -12.1289065,3.58789 H 0 v 13.798829 h 3.7734375 c 5.857474,0 9.9014415,1.216715 12.1289065,3.65039 2.227502,2.392479 3.339844,6.681752 3.339844,12.869141 v 11.880859 c 0,7.961119 2.062561,13.756749 6.1875,17.386719 4.124938,3.62993 12.066152,5.14258 21.058593,5.14258 H 59.914062 V 96.423828 l -5.902343,0.15625 c -5.816164,0 -9.610996,-0.907689 -11.384766,-2.722656 -1.73246,-1.773695 -2.599609,-5.609142 -2.599609,-11.507813 0,0 0.565077,-6.894741 0,-10.271484 -0.427843,-2.556737 -0.92291,-5.320508 -2.53125,-7.353516 -2.346633,-2.966211 -5.011135,-4.948786 -9.589844,-6.0625 4.537436,-1.031244 7.733604,-3.010735 9.589844,-5.939453 1.856239,-2.928718 2.646384,-7.632702 2.783203,-14.107422 l 0.119141,-5.61914 c 0.123703,-5.856106 2.128868,-7.779014 3.861328,-9.552735 1.77377,-1.81497 5.568564,-2.722656 11.384765,-2.722656 h 4.269531 9.070313 c 4.739603,0 8.333363,1.067707 10.78125,3.203125 2.447924,2.083332 3.671875,5.130214 3.671875,9.140625 0,4.062501 -1.223951,7.135399 -3.671875,9.21875 -2.447887,2.083314 -6.041647,3.125 -10.78125,3.125 l -24.664063,0.253906 v 20.46875 L 70,65.876953 c 6.093468,-0.06009 10.65105,1.276037 13.671875,3.828125 3.020825,2.500006 4.53125,6.276068 4.53125,11.328125 0,5.156258 -1.536468,9.010412 -4.609375,11.5625 C 80.572925,95.147754 76.041688,96.423828 70,96.423828 H 63.914062 V 116.89258 H 72.1875 c 15.520819,0 27.083355,-2.76042 34.6875,-8.28125 7.60414,-5.5208 11.40625,-13.906261 11.40625,-25.156252 0,-7.343735 -1.77086,-13.541655 -5.3125,-18.59375 -3.54164,-5.052057 -8.54166,-8.515639 -15,-10.390625 5.05209,-1.927105 8.90625,-4.86975 11.5625,-8.828125 2.65625,-4.010381 3.98437,-8.854169 3.98437,-14.53125 0,-10.78125 -3.64584,-18.619784 -10.9375,-23.5156249 C 95.338553,2.6998732 83.619796,0.25195312 67.421875,0.25195312 h -7.507813 z"
       transform="matrix(0.26458333,0,0,0.26458333,100.98949,89.139562)"
       id="path5194"
       inkscape:connector-curvature="0" />
    <g
       id="g5281"
       style="display:inline">
      <path
         inkscape:export-ydpi="96"
         inkscape:export-xdpi="96"
         sodipodi:nodetypes="ccccc"
         d="M 148.43533,100.92621 H 136.2521 v 6.01514 h 12.18323 z"
         style="font-style:normal;font-weight:bold;font-size:42.33333206px;line-height:1.25;font-family:sans-serif;letter-spacing:0px;word-spacing:0px;display:inline;fill:#000000;fill-opacity:1;stroke:none;stroke-width:0.26458332"
         id="path5198"
         inkscape:connector-curvature="0"
         inkscape:label="-" />
      <path
         sodipodi:nodetypes="cccscccsccccccscsscsccscsscsccccsc"
         inkscape:connector-curvature="0"
         id="path5216"
         transform="matrix(0.26458333,0,0,0.26458333,100.98949,89.139562)"
         d="m 91.173828,0.2734375 c 5.479935,1.2212003 9.956352,2.990563 13.404292,5.3222656 5.24611,3.5223977 8.5947,8.5776059 10.06641,15.1464849 h 35.02539 c 5.8162,0 9.611,0.907685 11.38477,2.722656 1.73246,1.773721 3.73762,3.696628 3.86133,9.552734 l 0.11914,5.617188 c 0.13682,6.474731 -0.39692,12.062586 1.45932,14.991305 1.85624,2.928718 6.37824,4.024326 10.91568,5.05557 -4.57871,1.113713 -8.76107,1.535742 -11.10771,4.501953 -1.20655,1.988365 -0.98929,3.636064 -1.01534,8.916015 0.0599,4.001744 0,10.271485 0,10.271485 0,5.898671 -29.88672,4.074218 -29.88672,4.074218 v 30.468748 h 23.42773 c 8.99245,0 16.93171,-1.51459 21.05665,-5.14453 4.12493,-3.62997 6.1875,-9.4256 6.1875,-17.386718 V 82.503906 c 0,-6.187389 1.11429,-10.476662 3.34179,-12.86914 2.22747,-2.433676 6.26948,-3.650391 12.12696,-3.650391 h 3.77343 V 52.185547 h -3.77343 c -5.85748,0 -9.89949,-1.195412 -12.12696,-3.587891 -2.2275,-2.392478 -3.34179,-6.683674 -3.34179,-12.871094 V 23.042969 c 0,-7.961133 -2.06257,-13.7355236 -6.1875,-17.324219 C 175.75983,2.0888048 169.20143,0.2734375 160.20898,0.2734375 Z M 65.400391,18.720703 v 2.021485 h 14.677734 c -2.316307,-1.339618 -5.33978,-2.021485 -9.09375,-2.021485 z"
         style="font-style:normal;font-weight:bold;font-size:42.33333206px;line-height:1.25;font-family:sans-serif;letter-spacing:0px;word-spacing:0px;display:inline;fill:#000000;fill-opacity:1;stroke:none;stroke-width:0.79198784"
         inkscape:label="}" />
    </g>
    <path
       style="font-style:normal;font-weight:bold;font-size:42.33333206px;line-height:1.25;font-family:sans-serif;letter-spacing:0px;word-spacing:0px;display:inline;fill:#000000;fill-opacity:1;stroke:none;stroke-width:0.23787013"
       mask="none"
       d="m 131.13602,105.93776 c -0.7395,-1.14083 -1.73537,-1.93615 -2.98761,-2.38594 1.08041,-0.50988 1.90464,-1.28846 2.47269,-2.33578 0.21047,-0.39313 0.38194,-0.81654 0.51442,-1.270207"
       id="path5355"
       inkscape:connector-curvature="0" />
    <path
       style="font-style:normal;font-weight:bold;font-size:42.33333206px;line-height:1.25;font-family:sans-serif;letter-spacing:0px;word-spacing:0px;display:inline;fill:#000000;fill-opacity:1;stroke:none;stroke-width:0.254859"
       d="m 131.14062,116.91151 c -0.47623,0.72953 -1.09981,1.35578 -1.87379,1.87716 -1.05301,0.70935 -2.39568,1.23123 -4.02249,1.56933 v 1.26198 h 5.89628 v -4.70847"
       id="path5361"
       inkscape:connector-curvature="0"
       sodipodi:nodetypes="cccccc" />
  </g>
</svg>
